<?xml version="1.0" standalone="no"?>
<!DOCTYPE svg PUBLIC "-//W3C//DTD SVG 20010904//EN"
 "http://www.w3.org/TR/2001/REC-SVG-20010904/DTD/svg10.dtd">
<svg version="1.0" xmlns="http://www.w3.org/2000/svg"
 width="464.000000pt" height="464.000000pt" viewBox="0 0 464.000000 464.000000"
 preserveAspectRatio="xMidYMid meet">
<metadata>
Created by potrace 1.14, written by Peter Selinger 2001-2017
</metadata>
<g transform="translate(0.000000,464.000000) scale(0.100000,-0.100000)"
fill="#000000" stroke="none">
<path d="M1637 3634 c-1 -1 -33 -4 -72 -7 -38 -3 -83 -11 -100 -18 -16 -7 -32
-13 -35 -14 -25 -8 -48 -22 -64 -37 -11 -10 -23 -18 -27 -18 -10 0 -73 -60
-63 -60 5 0 4 -4 -1 -8 -22 -16 -62 -90 -77 -142 -19 -69 -14 -366 7 -400 6
-9 4 -11 -5 -5 -9 5 -11 4 -6 -4 7 -11 9 -32 21 -201 3 -41 8 -106 11 -145 3
-38 7 -95 9 -125 2 -30 4 -55 5 -55 0 0 3 -34 5 -75 17 -282 25 -354 39 -362
8 -6 8 -8 -1 -8 -12 0 -12 -1 22 -85 5 -11 7 -23 7 -27 -1 -5 2 -8 8 -8 5 0
10 -7 10 -15 0 -8 5 -15 10 -15 6 0 10 -6 10 -13 0 -43 183 -183 260 -199 8
-2 18 -7 21 -11 5 -6 63 -10 314 -17 6 0 21 1 35 3 14 2 30 1 35 -2 6 -3 17
-6 25 -6 8 0 20 -11 27 -25 7 -13 18 -29 26 -35 8 -5 13 -18 11 -28 -2 -12 2
-17 12 -13 7 3 13 2 13 -2 -3 -12 25 -72 33 -72 4 0 14 -16 22 -35 8 -19 19
-35 24 -35 6 0 13 -11 16 -25 4 -14 11 -25 16 -25 6 0 10 -6 10 -13 0 -7 10
-23 23 -35 35 -33 46 -49 39 -57 -4 -4 -2 -5 3 -4 6 2 23 -5 40 -16 34 -23 92
-45 99 -37 3 3 23 5 45 6 21 1 45 7 53 14 8 6 18 9 21 5 4 -3 7 -1 7 5 0 6 9
14 20 17 11 4 18 11 15 16 -3 5 1 6 9 3 9 -3 16 -1 16 5 0 6 6 11 13 11 7 0
23 9 35 20 12 11 26 20 32 20 5 0 10 5 10 11 0 5 4 8 9 4 5 -3 16 4 25 16 8
12 19 18 25 14 6 -3 11 -2 11 4 0 5 9 13 20 16 11 4 18 10 16 14 -3 4 4 7 14
8 11 1 25 7 32 13 18 15 108 73 157 101 23 12 41 27 41 31 0 5 4 7 9 4 5 -3
14 1 21 9 7 8 19 15 26 15 8 0 14 5 14 10 0 6 5 10 10 10 6 0 33 16 60 35 28
19 50 33 50 30 0 -15 75 66 93 100 26 51 28 146 4 194 -17 35 -23 76 -9 68 15
-10 29 20 25 54 -2 19 -5 42 -6 52 -1 9 -5 17 -9 17 -4 0 -5 9 -3 20 2 11 -1
20 -7 20 -5 0 -8 7 -5 15 4 8 2 17 -4 20 -5 4 -7 11 -4 16 4 5 0 9 -7 9 -10 0
-10 2 1 9 10 7 8 12 -10 25 -15 10 -18 16 -9 16 10 0 11 3 4 8 -11 7 -37 49
-40 65 -1 4 -2 9 -4 12 -2 5 -3 73 0 78 0 1 3 36 5 77 4 76 12 196 21 304 2
32 7 63 10 67 3 5 -1 9 -8 9 -8 0 -9 3 -3 8 6 4 11 32 12 62 1 30 5 98 9 150
11 139 7 300 -8 300 -4 0 -8 9 -8 19 0 11 -5 23 -10 26 -6 4 -8 10 -5 15 3 4
-2 13 -10 20 -8 7 -15 17 -15 22 0 11 -86 97 -127 126 -18 12 -39 22 -47 22
-8 0 -17 4 -20 8 -18 29 -123 34 -774 35 -365 1 -664 1 -665 1z"/>
</g>
</svg>
